{"title":"Backroad.Bounty.S01E01.HDTV.XviD-AFG","uid":11918396,"size":378740343,"categoryP":"video","categoryS":"tv_shows","magnet":"?xt=urn:btih:d0c1cff0339d79c649f1f1cadd96542d98801ed7&amp;dn=Backroad.Bounty.S01E01.HDTV.XviD-AFG&amp;tr=udp%3A%2F%2Ftracker.openbittorrent.com%3A80&amp;tr=udp%3A%2F%2Fopen.demonii.com%3A1337&amp;tr=udp%3A%2F%2Ftracker.coppersurfer.tk%3A6969&amp;tr=udp%3A%2F%2Fexodus.desync.com%3A6969","seeders":0,"leechers":1,"uploader":"toots2boots","files":2,"time":1431584204,"description":"EPISODE 1 Bountiful Bests\nMarty and Bam Bam are traveling around cottage country in search of forgotten junk and hidden treasures! In this premiere episode, they visit a quintessential farm that is over 100 years old and is packed with inherited antiques. Will they find anything worth repurposing? As well, two cottage owners need a little help clearing out their lakefront properties.\n\n\nGeneral\nComplete name                            : G:Torrent uploadBackroad.Bounty.S01E01.HDTV.XviD-AFGBackroad.Bounty.S01E01.HDTV.XviD-AFG.avi\nFormat                                   : AVI\nFormat/Info                              : Audio Video Interleave\nFile size                                : 361 MiB\nDuration                                 : 43mn 16s\nOverall bit rate mode                    : Variable\nOverall bit rate                         : 1 167 Kbps\n\nVideo\nID                                       : 0\nFormat                                   : MPEG-4 Visual\nFormat profile                           : Advanced Simple@L5\nFormat settings, BVOP                    : 2\nFormat settings, QPel                    : No\nFormat settings, GMC                     : No warppoints\nFormat settings, Matrix                  : Default (H.263)\nCodec ID                                 : XVID\nCodec ID/Hint                            : XviD\nDuration                                 : 43mn 16s\nBit rate                                 : 1 026 Kbps\nWidth                                    : 640 pixels\nHeight                                   : 360 pixels\nDisplay aspect ratio                     : 16:9\nFrame rate                               : 25.000 fps\nColor space                              : YUV\nChroma subsampling                       : 4:2:0\nBit depth                                : 8 bits\nScan type                                : Progressive\nCompression mode                         : Lossy\nBits/(Pixel*Frame)                       : 0.178\nStream size                              : 318 MiB (88%)\nWriting library                          : XviD 64\n\nAudio\nID                                       : 1\nFormat                                   : MPEG Audio\nFormat version                           : Version 1\nFormat profile                           : Layer 3\nMode                                     : Joint stereo\nMode extension                           : MS Stereo\nCodec ID                                 : 55\nCodec ID/Hint                            : MP3\nDuration                                 : 43mn 15s\nBit rate mode                            : Variable\nBit rate                                 : 128 Kbps\nChannel(s)                               : 2 channels\nSampling rate                            : 48.0 KHz\nCompression mode                         : Lossy\nStream size                              : 39.6 MiB (11%)\nAlignment                                : Aligned on interleaves\nInterleave, duration                     : 24 ms (0.60 video frame)\nInterleave, preload duration             : 178 ms\nTitle                                    : Backroad.Bounty.S01E01.HDTV.XviD-AFG_360p.audio","torrent":{"xt":"urn:btih:d0c1cff0339d79c649f1f1cadd96542d98801ed7","amp;dn":"Backroad.Bounty.S01E01.HDTV.XviD-AFG","amp;tr":["udp%3A%2F%2Ftracker.openbittorrent.com%3A80","udp%3A%2F%2Fopen.demonii.com%3A1337","udp%3A%2F%2Ftracker.coppersurfer.tk%3A6969","udp%3A%2F%2Fexodus.desync.com%3A6969"],"infoHash":"d0c1cff0339d79c649f1f1cadd96542d98801ed7","infoHashBuffer":{"type":"Buffer","data":[208,193,207,240,51,157,121,198,73,241,241,202,221,150,84,45,152,128,30,215]},"announce":[],"urlList":[]}}